<svg width="85" height="81" viewBox="0 0 85 81" fill="none" xmlns="http://www.w3.org/2000/svg">
<g filter="url(#filter0_d_23_25)">
<path d="M12.7018 64.8671C12.7618 64.8871 12.8218 64.9171 12.8818 64.9571C12.9418 64.9971 12.9818 65.0571 13.0018 65.1371C13.0418 65.2171 13.0718 65.3071 13.0918 65.4071C13.1118 65.5071 13.1218 65.6171 13.1218 65.7371C13.1218 65.8571 13.1118 65.9671 13.0918 66.0671C13.0918 66.1671 13.0818 66.2871 13.0618 66.4271C13.0618 66.5671 13.0518 66.6771 13.0318 66.7571C13.0318 66.8371 13.0218 66.9271 13.0018 67.0271C13.0018 67.1271 12.9918 67.1871 12.9718 67.2071C12.8918 67.8671 12.7318 68.4771 12.4918 69.0371C12.2718 69.5771 11.9218 70.0571 11.4418 70.4771C10.9618 70.8771 10.4018 71.1071 9.7618 71.1671C8.5218 71.2671 7.5118 70.9271 6.7318 70.1471C5.9718 69.3671 5.4118 68.3371 5.0518 67.0571C4.8318 66.2571 4.6818 65.3371 4.6018 64.2971C4.5218 63.2371 4.5218 62.1471 4.6018 61.0271C4.6818 59.8871 4.8418 58.8171 5.0818 57.8171C5.3218 56.7971 5.6818 55.8971 6.1618 55.1171C6.6418 54.3371 7.2018 53.7871 7.8418 53.4671C8.6818 53.0871 9.4218 53.0371 10.0618 53.3171C10.7218 53.5771 11.2618 54.0871 11.6818 54.8471C12.1218 55.6071 12.4518 56.4571 12.6718 57.3971C12.8918 58.3371 13.0118 59.2871 13.0318 60.2471C13.0318 60.2671 13.0318 60.2971 13.0318 60.3371C13.0318 60.7571 12.9218 60.9671 12.7018 60.9671C12.6018 60.9671 12.5218 60.9271 12.4618 60.8471C12.4018 60.7671 12.3618 60.6771 12.3418 60.5771C12.3218 60.4571 12.3118 60.3371 12.3118 60.2171C12.3318 60.0971 12.3418 59.9771 12.3418 59.8571C12.3418 59.7371 12.3418 59.6471 12.3418 59.5871C12.2218 58.0071 11.8818 56.7871 11.3218 55.9271C10.9018 55.2671 10.5118 55.0371 10.1518 55.2371C10.0118 55.3171 9.7118 55.9471 9.2518 57.1271C8.6918 58.6071 8.3818 60.3371 8.3218 62.3171C8.2818 64.2971 8.5718 66.1371 9.1918 67.8371C9.4718 68.4771 9.9218 68.8771 10.5418 69.0371C10.6818 69.0771 10.8218 69.0871 10.9618 69.0671C11.7818 69.0071 12.2618 68.1671 12.4018 66.5471C12.4018 66.5071 12.3818 66.3271 12.3418 66.0071C12.3218 65.6871 12.3318 65.4271 12.3718 65.2271C12.4318 65.0271 12.5418 64.9071 12.7018 64.8671ZM5.6518 61.7771C5.6118 60.1771 5.8118 58.7571 6.2518 57.5171C6.7118 56.2771 7.2418 55.3471 7.8418 54.7271C8.3218 54.2271 8.7818 53.9771 9.2218 53.9771C9.3218 53.9771 9.3618 53.9271 9.3418 53.8271C9.3418 53.7271 9.3018 53.6771 9.2218 53.6771C8.7018 53.6771 8.1718 53.9571 7.6318 54.5171C6.9918 55.1771 6.4418 56.1471 5.9818 57.4271C5.5218 58.6871 5.3118 60.1371 5.3518 61.7771C5.3518 61.8771 5.4018 61.9271 5.5018 61.9271C5.6018 61.9271 5.6518 61.8771 5.6518 61.7771ZM23.0647 66.9371C23.0647 67.0171 23.0647 67.2671 23.0647 67.6871C23.0847 68.0871 23.0847 68.3771 23.0647 68.5571C23.0647 68.7171 23.0447 68.9871 23.0047 69.3671C22.9847 69.7271 22.9247 69.9971 22.8247 70.1771C22.7447 70.3571 22.6247 70.5571 22.4647 70.7771C22.3247 70.9971 22.1347 71.1471 21.8947 71.2271C21.6547 71.3271 21.3647 71.3771 21.0247 71.3771C20.7247 71.3571 20.4647 71.2971 20.2447 71.1971C20.0247 71.1171 19.8547 70.9771 19.7347 70.7771C19.6147 70.5971 19.5147 70.4271 19.4347 70.2671C19.3547 70.1071 19.2947 69.8771 19.2547 69.5771C19.2347 69.2771 19.2147 69.0571 19.1947 68.9171C19.1947 68.7571 19.1947 68.4971 19.1947 68.1371C19.2147 67.7771 19.2247 67.5571 19.2247 67.4771C19.2447 65.8171 19.2147 64.3271 19.1347 63.0071C19.0547 62.9871 18.9847 62.9671 18.9247 62.9471C17.9247 62.8071 16.6747 62.7971 15.1747 62.9171C14.9947 64.3971 14.8347 66.0371 14.6947 67.8371C14.6747 68.2371 14.6447 68.7171 14.6047 69.2771C14.5647 70.1171 14.4347 70.5371 14.2147 70.5371C14.1547 70.5371 14.0947 70.5171 14.0347 70.4771C13.9947 70.4371 13.9647 70.3871 13.9447 70.3271C13.9247 70.2671 13.9047 70.2071 13.8847 70.1471C13.8847 70.0871 13.8847 70.0171 13.8847 69.9371C13.8847 69.8571 13.8847 69.7871 13.8847 69.7271C13.9047 69.6671 13.9147 69.6071 13.9147 69.5471C13.9347 69.4671 13.9447 69.4071 13.9447 69.3671C14.1047 66.8271 14.2847 64.6771 14.4847 62.9171C14.2847 62.8571 14.1247 62.7171 14.0047 62.4971C13.8047 62.0171 14.0347 61.5971 14.6947 61.2371C15.0347 59.0171 15.4547 57.1971 15.9547 55.7771C16.0547 55.4571 16.1547 55.1771 16.2547 54.9371C16.3747 54.6971 16.5147 54.4371 16.6747 54.1571C16.8547 53.8771 17.0347 53.6471 17.2147 53.4671C17.4147 53.2871 17.6547 53.1471 17.9347 53.0471C18.2147 52.9271 18.5247 52.8771 18.8647 52.8971C19.3647 52.9171 19.8147 53.0771 20.2147 53.3771C20.6147 53.6571 20.9547 54.0671 21.2347 54.6071C21.5147 55.1471 21.7647 55.7171 21.9847 56.3171C22.2047 56.9171 22.3747 57.6371 22.4947 58.4771C22.6147 59.2971 22.7147 60.0471 22.7947 60.7271C22.8947 61.3871 22.9547 62.1571 22.9747 63.0371C23.0147 63.9171 23.0347 64.6171 23.0347 65.1371C23.0547 65.6371 23.0647 66.2371 23.0647 66.9371ZM15.4447 60.9371C16.4247 60.6371 17.5947 60.5171 18.9547 60.5771C18.9147 60.1771 18.8647 59.8171 18.8047 59.4971C18.7647 59.1571 18.7147 58.8471 18.6547 58.5671C18.5947 58.2671 18.5447 58.0271 18.5047 57.8471C18.4647 57.6471 18.4047 57.4371 18.3247 57.2171C18.2647 56.9771 18.2147 56.8171 18.1747 56.7371C18.1547 56.6571 18.1047 56.5071 18.0247 56.2871C17.9447 56.0671 17.8947 55.9471 17.8747 55.9271C17.8147 55.7471 17.7447 55.5971 17.6647 55.4771C17.5847 55.3571 17.5147 55.2871 17.4547 55.2671C17.3947 55.2471 17.3247 55.2471 17.2447 55.2671C17.1847 55.2671 17.1247 55.2971 17.0647 55.3571C17.0247 55.3971 16.9847 55.4471 16.9447 55.5071C16.9047 55.5471 16.8747 55.5871 16.8547 55.6271C16.3147 56.6471 15.8447 58.4171 15.4447 60.9371ZM21.9847 62.1071C22.0647 62.1071 22.1047 62.0571 22.1047 61.9571C21.8647 57.3171 20.9047 54.5471 19.2247 53.6471C19.1447 53.6071 19.0747 53.6271 19.0147 53.7071C18.9747 53.7871 19.0047 53.8571 19.1047 53.9171C20.6647 54.7571 21.5647 57.4371 21.8047 61.9571C21.8247 62.0571 21.8747 62.1071 21.9547 62.1071H21.9847ZM31.7455 53.1671C32.3055 53.1871 32.8055 53.3671 33.2455 53.7071C33.6855 54.0271 33.8955 54.4771 33.8755 55.0571C33.7955 55.6371 33.4855 55.9671 32.9455 56.0471C32.4055 56.1271 31.5255 56.0971 30.3055 55.9571C30.1655 55.9371 30.0955 55.9971 30.0955 56.1371C30.0955 56.3171 30.0755 57.0571 30.0355 58.3571C30.0155 59.6571 30.0155 61.0171 30.0355 62.4371C30.0555 63.8571 30.1155 65.4071 30.2155 67.0871C30.2355 67.2671 30.2755 67.5871 30.3355 68.0471C30.3955 68.4871 30.4255 68.8371 30.4255 69.0971C30.4255 69.3571 30.4055 69.6571 30.3655 69.9971C30.3255 70.3371 30.1955 70.6171 29.9755 70.8371C29.7755 71.0771 29.4955 71.2571 29.1355 71.3771C28.6555 71.4971 28.2355 71.4871 27.8755 71.3471C27.5155 71.2071 27.2455 70.9471 27.0655 70.5671C26.8855 70.1871 26.7455 69.8171 26.6455 69.4571C26.5655 69.0971 26.5055 68.6871 26.4655 68.2271C26.2055 65.0671 26.1355 61.3171 26.2555 56.9771C26.2555 56.5571 26.2655 56.2471 26.2855 56.0471C26.2855 55.9071 26.2155 55.8371 26.0755 55.8371C25.8555 55.8371 25.6655 55.8471 25.5055 55.8671C25.4255 55.8671 25.1655 55.8971 24.7255 55.9571C24.3055 56.0171 23.9755 56.0371 23.7355 56.0171C23.4755 55.9971 23.2655 55.8771 23.1055 55.6571C22.9255 55.4171 22.8655 55.1671 22.9255 54.9071C23.0855 54.0671 23.6355 53.5571 24.5755 53.3771C24.6155 53.3571 24.6855 53.3471 24.7855 53.3471L24.9055 53.3171C25.2455 53.2371 26.3455 53.1871 28.2055 53.1671C30.0855 53.1271 31.2655 53.1271 31.7455 53.1671ZM33.2155 54.9371C33.2955 54.8971 33.3155 54.8371 33.2755 54.7571C33.1155 54.3371 32.7055 54.0371 32.0455 53.8571C31.4055 53.6571 30.7455 53.5771 30.0655 53.6171C29.4055 53.6571 28.7855 53.6871 28.2055 53.7071C27.7655 53.7271 27.4955 53.7371 27.3955 53.7371C27.2955 53.7371 27.2455 53.7871 27.2455 53.8871C27.2455 53.9871 27.2955 54.0371 27.3955 54.0371C27.4955 54.0371 27.7655 54.0271 28.2055 54.0071C31.0855 53.7871 32.6855 54.0771 33.0055 54.8771C33.0455 54.9371 33.0955 54.9671 33.1555 54.9671C33.1755 54.9671 33.1955 54.9571 33.2155 54.9371ZM41.9905 66.9371C41.9905 67.0171 41.9905 67.2671 41.9905 67.6871C42.0105 68.0871 42.0105 68.3771 41.9905 68.5571C41.9905 68.7171 41.9705 68.9871 41.9305 69.3671C41.9105 69.7271 41.8505 69.9971 41.7505 70.1771C41.6705 70.3571 41.5505 70.5571 41.3905 70.7771C41.2505 70.9971 41.0605 71.1471 40.8205 71.2271C40.5805 71.3271 40.2905 71.3771 39.9505 71.3771C39.6505 71.3571 39.3905 71.2971 39.1705 71.1971C38.9505 71.1171 38.7805 70.9771 38.6605 70.7771C38.5405 70.5971 38.4405 70.4271 38.3605 70.2671C38.2805 70.1071 38.2205 69.8771 38.1805 69.5771C38.1605 69.2771 38.1405 69.0571 38.1205 68.9171C38.1205 68.7571 38.1205 68.4971 38.1205 68.1371C38.1405 67.7771 38.1505 67.5571 38.1505 67.4771C38.1705 65.8171 38.1405 64.3271 38.0605 63.0071C37.9805 62.9871 37.9105 62.9671 37.8505 62.9471C36.8505 62.8071 35.6005 62.7971 34.1005 62.9171C33.9205 64.3971 33.7605 66.0371 33.6205 67.8371C33.6005 68.2371 33.5705 68.7171 33.5305 69.2771C33.4905 70.1171 33.3605 70.5371 33.1405 70.5371C33.0805 70.5371 33.0205 70.5171 32.9605 70.4771C32.9205 70.4371 32.8905 70.3871 32.8705 70.3271C32.8505 70.2671 32.8305 70.2071 32.8105 70.1471C32.8105 70.0871 32.8105 70.0171 32.8105 69.9371C32.8105 69.8571 32.8105 69.7871 32.8105 69.7271C32.8305 69.6671 32.8405 69.6071 32.8405 69.5471C32.8605 69.4671 32.8705 69.4071 32.8705 69.3671C33.0305 66.8271 33.2105 64.6771 33.4105 62.9171C33.2105 62.8571 33.0505 62.7171 32.9305 62.4971C32.7305 62.0171 32.9605 61.5971 33.6205 61.2371C33.9605 59.0171 34.3805 57.1971 34.8805 55.7771C34.9805 55.4571 35.0805 55.1771 35.1805 54.9371C35.3005 54.6971 35.4405 54.4371 35.6005 54.1571C35.7805 53.8771 35.9605 53.6471 36.1405 53.4671C36.3405 53.2871 36.5805 53.1471 36.8605 53.0471C37.1405 52.9271 37.4505 52.8771 37.7905 52.8971C38.2905 52.9171 38.7405 53.0771 39.1405 53.3771C39.5405 53.6571 39.8805 54.0671 40.1605 54.6071C40.4405 55.1471 40.6905 55.7171 40.9105 56.3171C41.1305 56.9171 41.3005 57.6371 41.4205 58.4771C41.5405 59.2971 41.6405 60.0471 41.7205 60.7271C41.8205 61.3871 41.8805 62.1571 41.9005 63.0371C41.9405 63.9171 41.9605 64.6171 41.9605 65.1371C41.9805 65.6371 41.9905 66.2371 41.9905 66.9371ZM34.3705 60.9371C35.3505 60.6371 36.5205 60.5171 37.8805 60.5771C37.8405 60.1771 37.7905 59.8171 37.7305 59.4971C37.6905 59.1571 37.6405 58.8471 37.5805 58.5671C37.5205 58.2671 37.4705 58.0271 37.4305 57.8471C37.3905 57.6471 37.3305 57.4371 37.2505 57.2171C37.1905 56.9771 37.1405 56.8171 37.1005 56.7371C37.0805 56.6571 37.0305 56.5071 36.9505 56.2871C36.8705 56.0671 36.8205 55.9471 36.8005 55.9271C36.7405 55.7471 36.6705 55.5971 36.5905 55.4771C36.5105 55.3571 36.4405 55.2871 36.3805 55.2671C36.3205 55.2471 36.2505 55.2471 36.1705 55.2671C36.1105 55.2671 36.0505 55.2971 35.9905 55.3571C35.9505 55.3971 35.9105 55.4471 35.8705 55.5071C35.8305 55.5471 35.8005 55.5871 35.7805 55.6271C35.2405 56.6471 34.7705 58.4171 34.3705 60.9371ZM40.9105 62.1071C40.9905 62.1071 41.0305 62.0571 41.0305 61.9571C40.7905 57.3171 39.8305 54.5471 38.1505 53.6471C38.0705 53.6071 38.0005 53.6271 37.9405 53.7071C37.9005 53.7871 37.9305 53.8571 38.0305 53.9171C39.5905 54.7571 40.4905 57.4371 40.7305 61.9571C40.7505 62.0571 40.8005 62.1071 40.8805 62.1071H40.9105ZM50.6713 53.1671C51.2313 53.1871 51.7313 53.3671 52.1713 53.7071C52.6113 54.0271 52.8213 54.4771 52.8013 55.0571C52.7213 55.6371 52.4113 55.9671 51.8713 56.0471C51.3313 56.1271 50.4513 56.0971 49.2313 55.9571C49.0913 55.9371 49.0213 55.9971 49.0213 56.1371C49.0213 56.3171 49.0013 57.0571 48.9613 58.3571C48.9413 59.6571 48.9413 61.0171 48.9613 62.4371C48.9813 63.8571 49.0413 65.4071 49.1413 67.0871C49.1613 67.2671 49.2013 67.5871 49.2613 68.0471C49.3213 68.4871 49.3513 68.8371 49.3513 69.0971C49.3513 69.3571 49.3313 69.6571 49.2913 69.9971C49.2513 70.3371 49.1213 70.6171 48.9013 70.8371C48.7013 71.0771 48.4213 71.2571 48.0613 71.3771C47.5813 71.4971 47.1613 71.4871 46.8013 71.3471C46.4413 71.2071 46.1713 70.9471 45.9912 70.5671C45.8113 70.1871 45.6713 69.8171 45.5713 69.4571C45.4913 69.0971 45.4313 68.6871 45.3913 68.2271C45.1313 65.0671 45.0613 61.3171 45.1813 56.9771C45.1813 56.5571 45.1913 56.2471 45.2113 56.0471C45.2113 55.9071 45.1413 55.8371 45.0013 55.8371C44.7813 55.8371 44.5913 55.8471 44.4313 55.8671C44.3513 55.8671 44.0913 55.8971 43.6513 55.9571C43.2313 56.0171 42.9013 56.0371 42.6613 56.0171C42.4013 55.9971 42.1913 55.8771 42.0312 55.6571C41.8512 55.4171 41.7912 55.1671 41.8512 54.9071C42.0113 54.0671 42.5613 53.5571 43.5013 53.3771C43.5413 53.3571 43.6113 53.3471 43.7113 53.3471L43.8313 53.3171C44.1713 53.2371 45.2713 53.1871 47.1313 53.1671C49.0112 53.1271 50.1913 53.1271 50.6713 53.1671ZM52.1413 54.9371C52.2213 54.8971 52.2413 54.8371 52.2013 54.7571C52.0413 54.3371 51.6313 54.0371 50.9713 53.8571C50.3313 53.6571 49.6713 53.5771 48.9913 53.6171C48.3313 53.6571 47.7113 53.6871 47.1313 53.7071C46.6913 53.7271 46.4213 53.7371 46.3213 53.7371C46.2213 53.7371 46.1713 53.7871 46.1713 53.8871C46.1713 53.9871 46.2213 54.0371 46.3213 54.0371C46.4213 54.0371 46.6913 54.0271 47.1313 54.0071C50.0113 53.7871 51.6113 54.0771 51.9313 54.8771C51.9713 54.9371 52.0213 54.9671 52.0813 54.9671C52.1013 54.9671 52.1213 54.9571 52.1413 54.9371ZM56.6945 63.3371C56.6745 64.6171 56.7045 65.6271 56.7845 66.3671C56.8845 67.1071 57.0045 67.7071 57.1445 68.1671C57.3045 68.6271 57.3945 68.9271 57.4145 69.0671C57.5345 69.7471 57.2945 70.3371 56.6945 70.8371C55.9945 71.3971 55.2945 71.3971 54.5945 70.8371C53.1745 69.6571 52.6245 66.5171 52.9445 61.4171C52.9845 60.8571 53.0345 60.2771 53.0945 59.6771C53.1145 59.3171 53.1445 59.0171 53.1845 58.7771C53.2245 58.5371 53.2945 58.2671 53.3945 57.9671C53.5145 57.6671 53.6445 57.4271 53.7845 57.2471C53.9445 57.0671 54.1545 56.9271 54.4145 56.8271C54.6745 56.7071 54.9845 56.6671 55.3445 56.7071C55.8645 56.7871 56.2645 56.9771 56.5445 57.2771C56.8245 57.5771 56.9845 57.9771 57.0245 58.4771C57.0645 58.9771 57.0645 59.4671 57.0245 59.9471C56.9845 60.4071 56.9145 60.9871 56.8145 61.6871C56.7345 62.3671 56.6945 62.9171 56.6945 63.3371ZM56.3645 60.5771C56.5845 59.1571 56.4545 58.1771 55.9745 57.6371C55.7145 57.3571 55.3845 57.2171 54.9845 57.2171C54.8845 57.2171 54.8345 57.2671 54.8345 57.3671C54.8345 57.4871 54.8845 57.5371 54.9845 57.5171C55.3045 57.5171 55.5645 57.6271 55.7645 57.8471C56.1845 58.3071 56.2845 59.2071 56.0645 60.5471C56.0445 60.6271 56.0845 60.6771 56.1845 60.6971C56.2045 60.6971 56.2145 60.6971 56.2145 60.6971C56.2945 60.6971 56.3445 60.6571 56.3645 60.5771ZM56.6345 51.4871C57.2345 51.7071 57.6645 52.1071 57.9245 52.6871C58.1845 53.2471 58.2345 53.8071 58.0745 54.3671C57.8545 55.1671 57.3845 55.6971 56.6645 55.9571C55.9445 56.2171 55.2945 56.1371 54.7145 55.7171C54.2345 55.3771 53.9345 54.9271 53.8145 54.3671C53.7145 53.7871 53.7645 53.2571 53.9645 52.7771C54.1845 52.2771 54.5345 51.8971 55.0145 51.6371C55.5145 51.3571 56.0545 51.3071 56.6345 51.4871ZM57.5645 54.1571C57.8245 53.5971 57.6945 53.0371 57.1745 52.4771C56.7145 51.9971 56.2445 51.8371 55.7645 51.9971C55.6645 52.0371 55.6345 52.1071 55.6745 52.2071C55.7145 52.2871 55.7745 52.3071 55.8545 52.2671C56.2145 52.1471 56.5845 52.2871 56.9645 52.6871C57.3845 53.1471 57.4945 53.5971 57.2945 54.0371C57.2545 54.1371 57.2845 54.2071 57.3845 54.2471C57.4045 54.2471 57.4245 54.2471 57.4445 54.2471C57.5045 54.2471 57.5445 54.2171 57.5645 54.1571ZM64.2073 54.0971C65.4273 54.4971 66.3673 55.4571 67.0273 56.9771C67.7073 58.4971 68.0273 60.2571 67.9873 62.2571C67.9473 64.2371 67.5473 66.1071 66.7873 67.8671C66.4073 68.8071 65.9473 69.5571 65.4073 70.1171C64.8673 70.6771 64.3073 71.0171 63.7273 71.1371C63.1673 71.2571 62.6073 71.2071 62.0473 70.9871C61.4873 70.7871 60.9673 70.3871 60.4873 69.7871C60.0073 69.1671 59.6073 68.4071 59.2873 67.5071C58.8873 66.3271 58.6273 65.0571 58.5073 63.6971C58.3873 62.3171 58.4173 60.9971 58.5973 59.7371C58.7973 58.4771 59.1173 57.3571 59.5573 56.3771C59.9973 55.3971 60.6173 54.6871 61.4173 54.2471C62.2373 53.8071 63.1673 53.7571 64.2073 54.0971ZM60.6373 56.6471C60.7973 55.8671 61.2873 55.2971 62.1073 54.9371C62.8873 54.5771 63.6073 54.5971 64.2673 54.9971C64.3473 55.0371 64.4073 55.0171 64.4473 54.9371C64.5073 54.8571 64.4973 54.7871 64.4173 54.7271C63.6773 54.2871 62.8673 54.2671 61.9873 54.6671C61.5673 54.8471 61.2073 55.1171 60.9073 55.4771C60.6273 55.8171 60.4373 56.1871 60.3373 56.5871C60.3373 56.6871 60.3773 56.7471 60.4573 56.7671C60.4773 56.7671 60.4873 56.7671 60.4873 56.7671C60.5673 56.7671 60.6173 56.7271 60.6373 56.6471ZM63.9973 69.0071C64.3573 69.2271 64.7673 69.1371 65.2273 68.7371C65.6873 68.3171 66.1073 67.5971 66.4873 66.5771C66.8673 65.5371 67.1073 64.3571 67.2073 63.0371C67.3073 61.7971 67.2173 60.5171 66.9373 59.1971C66.6573 57.8571 66.1673 56.8071 65.4673 56.0471C65.3073 55.8671 65.0273 55.7971 64.6273 55.8371C64.2273 55.8571 63.9073 55.9771 63.6673 56.1971C63.3873 56.4971 63.1073 57.1471 62.8273 58.1471C62.5673 59.1471 62.3973 60.3771 62.3173 61.8371C62.2573 63.2971 62.4373 64.8071 62.8573 66.3671C62.9973 66.7871 63.1873 67.3071 63.4273 67.9271C63.6873 68.5471 63.8773 68.9071 63.9973 69.0071ZM73.3798 55.7171C73.9598 54.5171 74.7598 53.8071 75.7798 53.5871C77.0198 53.3271 78.0598 53.9471 78.8998 55.4471C80.2598 57.8471 80.6698 61.9171 80.1298 67.6571C80.1298 67.7371 80.1198 67.8671 80.0998 68.0471C80.0598 68.4471 80.0298 68.7571 80.0098 68.9771C79.9898 69.1971 79.9398 69.5071 79.8598 69.9071C79.7798 70.2871 79.6798 70.5871 79.5598 70.8071C79.4398 71.0471 79.2898 71.2771 79.1098 71.4971C78.9298 71.7371 78.6998 71.8971 78.4198 71.9771C78.1398 72.0571 77.8198 72.0571 77.4598 71.9771C76.9998 71.8771 76.6298 71.6371 76.3498 71.2571C76.0698 70.8971 75.9398 70.4871 75.9598 70.0271C75.9598 70.0071 75.9798 69.7071 76.0198 69.1271C76.0598 68.5271 76.0898 67.9771 76.1098 67.4771C76.1498 66.9771 76.1898 66.2371 76.2298 65.2571C76.2698 64.2771 76.2898 63.3871 76.2898 62.5871C76.2898 61.7871 76.2798 60.7871 76.2598 59.5871C76.1998 56.7071 75.7098 55.3971 74.7898 55.6571C73.7498 55.9371 73.0998 57.8871 72.8398 61.5071C72.8998 63.1871 73.0598 64.8971 73.3198 66.6371C73.3398 66.8371 73.4198 67.2171 73.5598 67.7771C73.6998 68.3171 73.7898 68.7371 73.8298 69.0371C73.8698 69.3371 73.8198 69.6871 73.6798 70.0871C73.5398 70.4671 73.2798 70.7671 72.8998 70.9871C72.5998 71.1271 72.3198 71.1971 72.0598 71.1971C71.7998 71.2171 71.5698 71.1771 71.3698 71.0771C71.1898 70.9971 71.0098 70.8571 70.8298 70.6571C70.6698 70.4771 70.5298 70.2871 70.4098 70.0871C70.2898 69.8671 70.1798 69.6271 70.0798 69.3671C69.9798 69.0871 69.8998 68.8371 69.8398 68.6171C69.7798 68.3771 69.7198 68.1271 69.6598 67.8671C69.0198 64.5271 68.8198 60.6971 69.0598 56.3771C69.0798 55.9971 69.0898 55.7571 69.0898 55.6571C69.1098 55.5371 69.1398 55.3071 69.1798 54.9671C69.2198 54.6071 69.2698 54.3571 69.3298 54.2171C69.3898 54.0571 69.4698 53.8571 69.5698 53.6171C69.6898 53.3571 69.8298 53.1771 69.9898 53.0771C70.1498 52.9771 70.3398 52.8871 70.5598 52.8071C70.7998 52.7271 71.0698 52.6971 71.3698 52.7171C71.9498 52.8171 72.3498 53.0271 72.5698 53.3471C72.8098 53.6671 72.9298 54.1271 72.9298 54.7271C72.9498 55.3271 72.9298 56.0971 72.8698 57.0371C73.0298 56.5371 73.1998 56.0971 73.3798 55.7171ZM72.3298 55.4771C72.4298 54.5171 72.2598 53.8471 71.8198 53.4671C71.4798 53.2071 71.0498 53.1671 70.5298 53.3471C70.4298 53.3871 70.3898 53.4571 70.4098 53.5571C70.4498 53.6371 70.5198 53.6671 70.6198 53.6471C71.0398 53.4871 71.3698 53.5071 71.6098 53.7071C71.9898 54.0071 72.1398 54.5871 72.0598 55.4471C72.0398 55.5471 72.0798 55.5971 72.1798 55.5971C72.2798 55.5971 72.3298 55.5571 72.3298 55.4771ZM79.1398 61.5671C79.1398 61.6471 79.1798 61.6871 79.2598 61.6871C79.3598 61.6871 79.4098 61.6471 79.4098 61.5671C79.4298 60.6871 79.3898 59.8571 79.2898 59.0771C79.1898 58.2771 79.0298 57.5271 78.8098 56.8271C78.6098 56.1271 78.3198 55.5471 77.9398 55.0871C77.5598 54.6271 77.1098 54.3571 76.5898 54.2771C76.5098 54.2571 76.4598 54.2971 76.4398 54.3971C76.4198 54.4971 76.4598 54.5571 76.5598 54.5771C77.3598 54.6971 77.9898 55.3871 78.4498 56.6471C78.9098 57.8871 79.1398 59.5271 79.1398 61.5671Z" fill="#E6D2DB"/>
</g>
<path fill-rule="evenodd" clip-rule="evenodd" d="M37.0346 0.838501L39.1906 1.97239L44.374 4.69842H46.4846L53.1722 1.89776L53.7982 3.39258L55.606 2.87463L65.8724 38.7067C66.4743 40.8074 66.2237 43.0608 65.1748 44.9779C64.1179 46.9097 62.3089 48.3182 60.177 48.8692L56.1445 49.9114L55.1435 46.0387L59.1761 44.9965C60.2381 44.722 61.1392 44.0204 61.6657 43.0581C62.2092 42.0646 62.3391 40.897 62.0272 39.8084L52.4896 6.52023L47.659 8.54318L47.2883 8.69842H46.8865H43.8802H43.3863L42.9492 8.46855L39.4848 6.64655L29.6807 39.7171C29.4156 40.6114 29.4692 41.5701 29.8324 42.4292C30.2407 43.3948 31.0402 44.1412 32.0315 44.4823L33.5766 45.0138C36.299 45.9502 35.626 49.9754 32.7471 49.9754H14.7234C13.8358 49.9754 12.9766 49.662 12.2974 49.0906L11.6016 48.5052C9.67124 46.8812 9.47038 43.981 11.1584 42.1064C11.7847 41.4108 12.6768 41.0137 13.6128 41.0137H17.2155H17.305L17.3942 41.0217L20.9234 41.3384C22.0235 41.4371 22.8354 42.409 22.7366 43.5092C22.6379 44.6093 21.666 45.4211 20.5659 45.3224L17.1259 45.0137H14.019C13.9925 45.1693 14.0466 45.3349 14.1767 45.4443L14.8079 45.9754H27.374C26.8716 45.3848 26.4563 44.7158 26.1482 43.9869C25.424 42.2741 25.3171 40.363 25.8457 38.5802L36.3422 3.17406L37.0346 0.838501ZM33.4525 29.597L38.158 47.1212L38.3358 47.7833L38.8823 48.1971L40.9736 49.7806L41.5092 50.1861H42.1809H44.0109H44.7561L45.3196 49.6985L45.885 49.2091L46.5448 49.742L47.0946 50.1861H47.8014H49.8928H50.7782L51.3735 49.5305L52.8113 47.947L53.1566 47.5666L53.2759 47.0669L57.4586 29.5427L53.5679 28.614L49.5045 45.6385L49.0073 46.1861H48.5082L47.8408 45.647V33.0899H43.8408V45.6884L43.2656 46.1861H42.8527L41.8434 45.4219L37.3156 28.5597L33.4525 29.597Z" fill="#E6D2DB"/>
<defs>
<filter id="filter0_d_23_25" x="0.481796" y="51.2171" width="84.458" height="28.88" filterUnits="userSpaceOnUse" color-interpolation-filters="sRGB">
<feFlood flood-opacity="0" result="BackgroundImageFix"/>
<feColorMatrix in="SourceAlpha" type="matrix" values="0 0 0 0 0 0 0 0 0 0 0 0 0 0 0 0 0 0 127 0" result="hardAlpha"/>
<feOffset dy="4"/>
<feGaussianBlur stdDeviation="2"/>
<feComposite in2="hardAlpha" operator="out"/>
<feColorMatrix type="matrix" values="0 0 0 0 0 0 0 0 0 0 0 0 0 0 0 0 0 0 0.5 0"/>
<feBlend mode="normal" in2="BackgroundImageFix" result="effect1_dropShadow_23_25"/>
<feBlend mode="normal" in="SourceGraphic" in2="effect1_dropShadow_23_25" result="shape"/>
</filter>
</defs>
</svg>
